<svg
  id="visual"
  viewBox="0 0 5000 400"
  width="5000"
  height="400"
  xmlns="http://www.w3.org/2000/svg"
  xmlns:xlink="http://www.w3.org/1999/xlink"
  version="1.1">
  <path
    d="M0 312L33.3 312.7C66.7 313.3 133.3 314.7 200 315.7C266.7 316.7 333.3 317.3 400 315.7C466.7 314 533.3 310 600 304.7C666.7 299.3 733.3 292.7 800 290.3C866.7 288 933.3 290 1000 290.5C1066.7 291 1133.3 290 1200 287.2C1266.7 284.3 1333.3 279.7 1400 281C1466.7 282.3 1533.3 289.7 1600 295.5C1666.7 301.3 1733.3 305.7 1800 301.5C1866.7 297.3 1933.3 284.7 2000 284C2066.7 283.3 2133.3 294.7 2200 296C2266.7 297.3 2333.3 288.7 2400 286.7C2466.7 284.7 2533.3 289.3 2600 294.8C2666.7 300.3 2733.3 306.7 2800 304.3C2866.7 302 2933.3 291 3000 289C3066.7 287 3133.3 294 3200 299.3C3266.7 304.7 3333.3 308.3 3400 306C3466.7 303.7 3533.3 295.3 3600 289.7C3666.7 284 3733.3 281 3800 281.7C3866.7 282.3 3933.3 286.7 4000 291.5C4066.7 296.3 4133.3 301.7 4200 306.3C4266.7 311 4333.3 315 4400 310.5C4466.7 306 4533.3 293 4600 289.2C4666.7 285.3 4733.3 290.7 4800 293.8C4866.7 297 4933.3 298 4966.7 298.5L5000 299L5000 401L4966.7 401C4933.3 401 4866.7 401 4800 401C4733.3 401 4666.7 401 4600 401C4533.3 401 4466.7 401 4400 401C4333.3 401 4266.7 401 4200 401C4133.3 401 4066.7 401 4000 401C3933.3 401 3866.7 401 3800 401C3733.3 401 3666.7 401 3600 401C3533.3 401 3466.7 401 3400 401C3333.3 401 3266.7 401 3200 401C3133.3 401 3066.7 401 3000 401C2933.3 401 2866.7 401 2800 401C2733.3 401 2666.7 401 2600 401C2533.3 401 2466.7 401 2400 401C2333.3 401 2266.7 401 2200 401C2133.3 401 2066.7 401 2000 401C1933.3 401 1866.7 401 1800 401C1733.3 401 1666.7 401 1600 401C1533.3 401 1466.7 401 1400 401C1333.3 401 1266.7 401 1200 401C1133.3 401 1066.7 401 1000 401C933.3 401 866.7 401 800 401C733.3 401 666.7 401 600 401C533.3 401 466.7 401 400 401C333.3 401 266.7 401 200 401C133.3 401 66.7 401 33.3 401L0 401Z"
    fill="currentColor"
    stroke="currentColor" stroke-linecap="round" stroke-linejoin="miter">
  </path>
</svg>