<svg
  id="visual"
  viewBox="0 0 5000 400"
  width="5000"
  height="400"
  xmlns="http://www.w3.org/2000/svg"
  xmlns:xlink="http://www.w3.org/1999/xlink"
  version="1.1"
>
  <path
    d="M0 323L30.8 312.8C61.7 302.7 123.3 282.3 185 283.5C246.7 284.7 308.3 307.3 370.2 314C432 320.7 494 311.3 555.8 307.2C617.7 303 679.3 304 741 305.7C802.7 307.3 864.3 309.7 926 314.3C987.7 319 1049.3 326 1111 315.8C1172.7 305.7 1234.3 278.3 1296 267.3C1357.7 256.3 1419.3 261.7 1481.2 275C1543 288.3 1605 309.7 1666.8 304.8C1728.7 300 1790.3 269 1852 263.7C1913.7 258.3 1975.3 278.7 2037 294.5C2098.7 310.3 2160.3 321.7 2222 325.3C2283.7 329 2345.3 325 2407.2 309.3C2469 293.7 2531 266.3 2592.8 254.8C2654.7 243.3 2716.3 247.7 2778 264.2C2839.7 280.7 2901.3 309.3 2963 320.3C3024.7 331.3 3086.3 324.7 3148 312.5C3209.7 300.3 3271.3 282.7 3333.2 269.2C3395 255.7 3457 246.3 3518.8 250.7C3580.7 255 3642.3 273 3704 271.3C3765.7 269.7 3827.3 248.3 3889 250.5C3950.7 252.7 4012.3 278.3 4074 278.3C4135.7 278.3 4197.3 252.7 4259 245.5C4320.7 238.3 4382.3 249.7 4444.2 264C4506 278.3 4568 295.7 4629.8 300.8C4691.7 306 4753.3 299 4815 292.2C4876.7 285.3 4938.3 278.7 4969.2 275.3L5000 272L5000 401L4969.2 401C4938.3 401 4876.7 401 4815 401C4753.3 401 4691.7 401 4629.8 401C4568 401 4506 401 4444.2 401C4382.3 401 4320.7 401 4259 401C4197.3 401 4135.7 401 4074 401C4012.3 401 3950.7 401 3889 401C3827.3 401 3765.7 401 3704 401C3642.3 401 3580.7 401 3518.8 401C3457 401 3395 401 3333.2 401C3271.3 401 3209.7 401 3148 401C3086.3 401 3024.7 401 2963 401C2901.3 401 2839.7 401 2778 401C2716.3 401 2654.7 401 2592.8 401C2531 401 2469 401 2407.2 401C2345.3 401 2283.7 401 2222 401C2160.3 401 2098.7 401 2037 401C1975.3 401 1913.7 401 1852 401C1790.3 401 1728.7 401 1666.8 401C1605 401 1543 401 1481.2 401C1419.3 401 1357.7 401 1296 401C1234.3 401 1172.7 401 1111 401C1049.3 401 987.7 401 926 401C864.3 401 802.7 401 741 401C679.3 401 617.7 401 555.8 401C494 401 432 401 370.2 401C308.3 401 246.7 401 185 401C123.3 401 61.7 401 30.8 401L0 401Z"
    fill="currentColor"
    stroke="currentColor">
  </path>
</svg>