<svg width="440" height="218" viewBox="0 0 440 218" fill="none" xmlns="http://www.w3.org/2000/svg">
<path d="M367.347 111.2C375.614 109.467 381.747 106.133 385.747 101.2C389.88 96.2667 391.947 91.5333 391.947 87C391.947 82.3333 390.68 79.2 388.147 77.6C385.747 75.8667 383.08 75 380.147 75C373.88 75 368.347 78.5333 363.547 85.6C358.88 92.5333 356.547 100.867 356.547 110.6C356.547 120.2 358.814 127.4 363.347 132.2C368.014 136.867 373.747 139.2 380.547 139.2C390.547 139.2 400.147 135.733 409.347 128.8C418.547 121.867 426.014 112.8 431.747 101.6C434.68 104.4 437.347 107.867 439.747 112C435.347 122 427.547 131.8 416.347 141.4C410.747 146.067 404.08 149.867 396.347 152.8C388.747 155.733 380.88 157.2 372.747 157.2C359.414 157.2 348.88 153.133 341.147 145C332.88 136.2 328.747 124.933 328.747 111.2C328.747 97.4667 333.88 85.4667 344.147 75.2C354.547 64.9333 366.947 59.8 381.347 59.8C391.614 59.8 399.947 62.0666 406.347 66.6C412.747 71 416.014 77 416.147 84.6C416.147 94.8667 412.014 103.2 403.747 109.6C395.614 116 384.414 120.467 370.147 123L367.347 111.2Z" fill="#3D4042"/>
<path d="M290.858 67.4C292.191 65 294.724 63.2 298.458 62C302.191 60.6667 305.858 60 309.458 60C313.191 60 316.458 60.4667 319.258 61.4C314.058 101.533 311.458 121.8 311.458 122.2C310.791 124.867 310.458 127.133 310.458 129C310.458 130.733 310.591 132.267 310.858 133.6C311.391 137.067 313.791 138.8 318.058 138.8C322.458 138.8 326.458 136 330.058 130.4C333.791 124.667 336.591 118.2 338.458 111C339.391 111.533 340.858 113.133 342.858 115.8C344.858 118.467 346.058 120.467 346.458 121.8C343.791 132.467 339.258 141.067 332.858 147.6C326.458 154.133 318.791 157.4 309.858 157.4C300.924 157.4 294.258 155.2 289.858 150.8C285.591 146.4 283.458 140.733 283.458 133.8C283.458 132.333 283.524 130.8 283.658 129.2L290.858 67.4Z" fill="#3D4042"/>
<path d="M252.708 88.2C252.708 79.5333 248.841 75.2 241.108 75.2C235.375 75.2 230.241 78.4667 225.708 85C220.908 92.0667 218.508 100.333 218.508 109.8C218.508 119.267 220.574 126.6 224.708 131.8C228.974 136.867 234.774 139.4 242.108 139.4C250.908 139.4 260.174 135.8 269.908 128.6C279.774 121.4 287.708 112.467 293.708 101.8C296.375 103.8 298.974 107.467 301.508 112.8C297.641 120.533 290.441 129.2 279.908 138.8C274.441 143.867 267.641 148.133 259.508 151.6C250.708 155.333 241.908 157.2 233.108 157.2C221.241 157.2 211.174 153.133 202.908 145C194.774 136.867 190.708 126.267 190.708 113.2C190.708 97.3333 196.041 84.4667 206.708 74.6C217.374 64.7333 229.308 59.8 242.508 59.8C252.774 59.8 260.908 61.9333 266.908 66.2C272.908 70.4667 275.908 76.0667 275.908 83C275.908 87.5333 274.308 91.4666 271.108 94.8C265.241 100.667 258.108 103.6 249.708 103.6C251.708 96.9333 252.708 91.8 252.708 88.2Z" fill="#3D4042"/>
<path d="M169.538 157C157.271 157 149.137 152.733 145.137 144.2C138.204 152.867 129.271 157.2 118.338 157.2C107.537 157.2 98.4042 153.533 90.9375 146.2C83.6042 138.867 79.9375 129.2 79.9375 117.2C79.9375 99.7333 85.0708 85.8 95.3375 75.4C105.604 65 118.604 59.8 134.338 59.8C134.737 59.8 135.138 59.8 135.538 59.8C142.204 59.8 148.338 60.9333 153.938 63.2C157.537 60.9333 161.871 59.8 166.938 59.8C172.137 59.8 175.871 60.4667 178.138 61.8C176.938 71.6667 175.671 81.4 174.338 91C173.004 100.467 172.071 107.2 171.538 111.2C170.338 120.267 169.738 126.8 169.738 130.8C169.738 136.133 171.871 138.8 176.138 138.8C179.471 138.8 183.004 136.6 186.738 132.2C190.471 127.667 193.738 120.6 196.538 111C200.404 114.467 203.071 118.333 204.538 122.6C200.671 135.267 195.471 144.2 188.938 149.4C182.404 154.467 175.938 157 169.538 157ZM137.338 75.4C128.804 75.4 122.004 78.6667 116.938 85.2C112.004 91.6 109.071 101.2 108.137 114C108.004 115.2 107.938 116.333 107.938 117.4C107.938 123.933 109.471 129.133 112.537 133C115.737 136.867 119.804 138.8 124.738 138.8C133.138 138.8 139.471 132.867 143.738 121L148.538 77.8C144.671 76.2 140.938 75.4 137.338 75.4Z" fill="#3D4042"/>
<path d="M24 217.2C17.7333 217.2 12.2 215.2 7.4 211.2C2.46667 207.333 0 200.6 0 191C0 171.8 11.6 154.667 34.8 139.6C35.7333 131.6 38.5333 107.533 43.2 67.4C47.2 62.4667 53.4667 60 62 60C66.8 60 70.0667 60.4667 71.8 61.4L56.2 182.4C54.8667 194 51.6 202.667 46.4 208.4C41.3333 214.267 33.8667 217.2 24 217.2ZM12.8 189C12.8 192.6 13.5333 195.333 15 197.2C16.4667 199.2 18.3333 200.2 20.6 200.2C24.8667 200.2 27.6 195.8 28.8 187L33 155C19.5333 165.667 12.8 177 12.8 189Z" fill="#3D4042"/>
<path d="M307.664 36.8333C308.239 36.8333 308.79 37.0616 309.196 37.4679C309.603 37.8743 309.831 38.4254 309.831 39V41.1667C309.831 41.7413 309.603 42.2924 309.196 42.6987C308.79 43.1051 308.239 43.3333 307.664 43.3333C307.09 43.3333 306.539 43.1051 306.132 42.6987C305.726 42.2924 305.498 41.7413 305.498 41.1667V39C305.498 38.4254 305.726 37.8743 306.132 37.4679C306.539 37.0616 307.09 36.8333 307.664 36.8333ZM321.453 32.3917L322.985 33.9235C323.379 34.3321 323.598 34.8794 323.593 35.4475C323.588 36.0156 323.36 36.5591 322.958 36.9608C322.557 37.3625 322.013 37.5904 321.445 37.5953C320.877 37.6002 320.33 37.3818 319.921 36.9872L318.389 35.4553C317.995 35.0467 317.776 34.4994 317.781 33.9313C317.786 33.3632 318.014 32.8198 318.416 32.4181C318.817 32.0163 319.361 31.7885 319.929 31.7835C320.497 31.7786 321.044 31.997 321.453 32.3917ZM293.876 32.3917C294.266 32.0031 294.789 31.7775 295.339 31.7607C295.889 31.7439 296.425 31.9371 296.838 32.3012C297.251 32.6653 297.51 33.1729 297.562 33.7209C297.614 34.2689 297.456 34.8162 297.119 35.2517L296.939 35.4553L295.407 36.9872C295.018 37.3757 294.494 37.6014 293.944 37.6182C293.394 37.635 292.858 37.4417 292.445 37.0776C292.032 36.7136 291.773 36.206 291.721 35.658C291.669 35.11 291.827 34.5626 292.164 34.1272L292.344 33.9235L293.876 32.3917ZM307.664 8.66667C311.112 8.66667 314.419 10.0363 316.857 12.4743C319.295 14.9123 320.664 18.2189 320.664 21.6667C320.664 25.1145 319.295 28.4211 316.857 30.8591C314.419 33.297 311.112 34.6667 307.664 34.6667C304.216 34.6667 300.91 33.297 298.472 30.8591C296.034 28.4211 294.664 25.1145 294.664 21.6667C294.664 18.2189 296.034 14.9123 298.472 12.4743C300.91 10.0363 304.216 8.66667 307.664 8.66667ZM290.331 19.5C290.883 19.5006 291.414 19.7121 291.816 20.0912C292.217 20.4703 292.459 20.9884 292.491 21.5397C292.524 22.091 292.344 22.6338 291.99 23.0573C291.636 23.4808 291.133 23.7529 290.584 23.8182L290.331 23.8333H288.164C287.612 23.8327 287.081 23.6213 286.679 23.2422C286.278 22.8631 286.036 22.3449 286.004 21.7936C285.971 21.2424 286.151 20.6995 286.505 20.276C286.86 19.8525 287.362 19.5804 287.911 19.5152L288.164 19.5H290.331ZM327.164 19.5C327.739 19.5 328.29 19.7283 328.696 20.1346C329.103 20.5409 329.331 21.092 329.331 21.6667C329.331 22.2413 329.103 22.7924 328.696 23.1987C328.29 23.6051 327.739 23.8333 327.164 23.8333H324.998C324.423 23.8333 323.872 23.6051 323.466 23.1987C323.059 22.7924 322.831 22.2413 322.831 21.6667C322.831 21.092 323.059 20.5409 323.466 20.1346C323.872 19.7283 324.423 19.5 324.998 19.5H327.164ZM292.344 6.34617C292.717 5.97312 293.213 5.74902 293.74 5.71591C294.266 5.6828 294.787 5.84296 295.204 6.16633L295.407 6.34617L296.939 7.878C297.328 8.26791 297.553 8.79111 297.57 9.34133C297.587 9.89155 297.394 10.4275 297.03 10.8404C296.666 11.2533 296.158 11.5122 295.61 11.5644C295.062 11.6166 294.515 11.4582 294.079 11.1215L293.876 10.9417L292.344 9.40983C291.938 9.00352 291.709 8.45252 291.709 7.878C291.709 7.30348 291.938 6.75248 292.344 6.34617ZM322.985 6.34617C323.391 6.75248 323.619 7.30348 323.619 7.878C323.619 8.45252 323.391 9.00352 322.985 9.40983L321.453 10.9417C321.253 11.1486 321.014 11.3137 320.75 11.4272C320.485 11.5408 320.201 11.6005 319.913 11.603C319.626 11.6055 319.34 11.5507 319.074 11.4418C318.808 11.3328 318.566 11.172 318.362 10.9685C318.159 10.7651 317.998 10.5232 317.889 10.2569C317.78 9.99062 317.725 9.70532 317.728 9.41763C317.73 9.12994 317.79 8.84563 317.904 8.58129C318.017 8.31695 318.182 8.07787 318.389 7.878L319.921 6.34617C320.327 5.93998 320.878 5.7118 321.453 5.7118C322.027 5.7118 322.578 5.93998 322.985 6.34617ZM307.664 0C308.239 0 308.79 0.228273 309.196 0.634602C309.603 1.04093 309.831 1.59203 309.831 2.16667V4.33333C309.831 4.90797 309.603 5.45907 309.196 5.8654C308.79 6.27173 308.239 6.5 307.664 6.5C307.09 6.5 306.539 6.27173 306.132 5.8654C305.726 5.45907 305.498 4.90797 305.498 4.33333V2.16667C305.498 1.59203 305.726 1.04093 306.132 0.634602C306.539 0.228273 307.09 0 307.664 0Z" fill="#3D4042"/>
<path d="M52.341 6.85433C49.2815 9.35886 46.6857 13.261 45.209 17.9926C43.7323 22.7241 43.6479 27.4097 44.7399 31.2094C45.832 35.0091 48.1415 37.9652 51.4492 38.997C59.528 40.8847 68.7008 39.6199 74.7139 36.8259C76.5641 36.7478 79.9653 37.0802 80.3952 36.3062C80.6943 35.7678 80.046 30.6626 78.48 29.5388C76.6652 16.3653 74.9235 6.99083 62.2892 4.26296C59.026 3.3508 54.7659 4.95658 52.341 6.85433ZM59.7523 5.24969C60.4755 5.2503 61.1882 5.35565 61.8809 5.57175C64.6515 6.43607 66.677 8.93771 67.6805 12.4295C68.684 15.9213 68.6245 20.3605 67.2205 24.8592C65.8165 29.3578 63.3406 33.0432 60.529 35.3448C57.7174 37.6464 54.6283 38.5524 51.8577 37.6882C49.0871 36.8239 47.0613 34.3222 46.0578 30.8304C45.0542 27.3386 45.114 22.8994 46.5179 18.4007C47.9219 13.9022 50.3979 10.2167 53.2095 7.91518C55.3181 6.18897 57.5829 5.24771 59.7523 5.24969ZM54.3885 9.32931L56.6823 20.2105L60.4983 6.75165C58.3874 6.7892 55.5859 7.80945 54.3885 9.32931ZM62.344 7.35912C62.023 7.30565 57.9988 20.4388 57.9988 20.4388L66.415 14.2636C66.3677 12.6937 64.3325 7.96583 62.344 7.35912ZM52.8103 10.9075C50.945 12.3543 49.4686 15.3442 48.8783 17.4878L55.4032 20.6892L52.8103 10.9075ZM66.8616 16.2878L58.4273 21.9429L65.709 23.8905C66.2563 21.7597 66.8938 18.305 66.8616 16.2878ZM48.2361 19.2265C47.5223 21.1813 46.99 23.0986 46.9522 24.9774L55.084 22.249L48.2361 19.2265ZM58.2128 23.1745L63.2247 29.2684C64.3979 27.974 64.946 26.6261 65.3971 25.3852L58.2128 23.1745ZM55.1642 23.5663L47.0873 27.0134C47.0359 29.2291 47.754 31.4668 48.706 33.1473L55.1642 23.5663ZM57.2506 23.9878L57.4647 35.4898C60.2381 34.3442 61.7663 32.1074 62.6402 30.7238L57.2506 23.9878ZM55.9933 24.175L49.6967 34.8003C51.1126 36.1261 54.0865 36.5208 56.0575 36.1007L55.9933 24.175Z" fill="#3D4042"/>
<path d="M251.647 123L250.149 125.477L249.805 125.366C248.479 124.937 246.312 125.017 245.039 125.371L244.702 125.465L243.302 123.095C241.66 126.477 241.726 128.835 242.579 130.35C243.493 131.971 245.381 132.747 247.419 132.722C249.799 132.692 251.763 131.761 252.645 130.075C253.472 128.497 253.411 126.147 251.647 123L251.647 123ZM244.835 127.911C245.735 127.916 246.268 128.66 246.371 129.701C244.559 130.575 243.736 129.867 243.384 128.405C243.94 128.06 244.425 127.909 244.835 127.911L244.835 127.911ZM250.17 127.911C250.579 127.909 251.064 128.06 251.62 128.405C251.268 129.867 250.445 130.575 248.633 129.701C248.736 128.66 249.269 127.916 250.169 127.911H250.17ZM235.836 130.4C235.776 130.399 235.716 130.4 235.657 130.401C234.184 130.427 232.916 130.918 231.959 131.698C229.838 133.428 229.162 136.618 231.333 139.813C232.324 141.473 233.502 142.461 234.79 142.947C236.394 143.552 238.044 143.378 239.669 143.148C241.295 142.918 242.885 142.629 244.401 142.737C245.916 142.845 247.432 143.234 248.82 144.747C249.766 145.778 251.109 144.667 249.983 143.567C248.273 141.897 246.442 141.252 244.642 141.124C242.843 140.996 241.117 141.353 239.554 141.575C237.991 141.796 236.611 141.895 235.425 141.447C234.723 141.182 234.043 140.724 233.396 139.927H250.571C251.239 137.373 251.297 134.733 250.663 132.989C249.698 133.404 248.592 133.619 247.43 133.634H247.43C245.973 133.652 244.527 133.296 243.382 132.519C243.146 132.672 242.914 132.83 242.684 132.992L242.404 133.19L242.136 132.976C239.859 131.16 237.692 130.414 235.836 130.4L235.836 130.4Z" fill="#3D4042"/>
</svg>
